PathFileType	4	(X/Y/Z)	/tmp/tmpo_pwfo2l//results/MarkerData/Run_5.trc
DataRate	CameraRate	NumFrames	NumMarkers	Units	OrigDataRate	OrigDataStartFrame	OrigNumFrames
120.005	120.005	10	42	m	120.005	281	450
Frame#	Time	C7			CLAV			LACR			LASI			LCAL			LFAradius			LFAsuperior			LFAulna			LLEL			LMEL			LMT5			LPSI			LTB1			LTB2			LTB3			LTH1			LTH2			LTH3			LTOE			LUA1			LUA2			LUA3			RACR			RASI			RCAL			RFAradius			RFAsuperior			RFAulna			RLEL			RMEL			RMT5			RPSI			RTB1			RTB2			RTB3			RTH1			RTH2			RTH3			RTOE			RUA1			RUA2			RUA3		
		X1	Y1	Z1	X2	Y2	Z2	X3	Y3	Z3	X4	Y4	Z4	X5	Y5	Z5	X6	Y6	Z6	X7	Y7	Z7	X8	Y8	Z8	X9	Y9	Z9	X10	Y10	Z10	X11	Y11	Z11	X12	Y12	Z12	X13	Y13	Z13	X14	Y14	Z14	X15	Y15	Z15	X16	Y16	Z16	X17	Y17	Z17	X18	Y18	Z18	X19	Y19	Z19	X20	Y20	Z20	X21	Y21	Z21	X22	Y22	Z22	X23	Y23	Z23	X24	Y24	Z24	X25	Y25	Z25	X26	Y26	Z26	X27	Y27	Z27	X28	Y28	Z28	X29	Y29	Z29	X30	Y30	Z30	X31	Y31	Z31	X32	Y32	Z32	X33	Y33	Z33	X34	Y34	Z34	X35	Y35	Z35	X36	Y36	Z36	X37	Y37	Z37	X38	Y38	Z38	X39	Y39	Z39	X40	Y40	Z40	X41	Y41	Z41	X42	Y42	Z42

282	2.39167	0.867788	1.57706	-0.62468	0.999136	1.49621	-0.627721	0.908918	1.55535	-0.806702	0.938005	1.08062	-0.756081	1.05059	0.184503	-0.672654	0.854365	1.2467	-0.826071	0.715761	1.3144	-0.924041	0.828336	1.18829	-0.858886	0.634982	1.36535	-0.936347	0.60701	1.36663	-0.856928	1.21611	0.140114	-0.747408	0.762975	1.12209	-0.681947	1.20775	0.521264	-0.700371	1.17078	0.435614	-0.754715	1.1719	0.320671	-0.687685	0.955778	0.897582	-0.805147	1.08218	0.844247	-0.793283	1.09669	0.718368	-0.764619	1.28541	0.169856	-0.661614	0.843902	1.5152	-0.876487	0.824067	1.45085	-0.893092	0.737715	1.48252	-0.852733	0.980711	1.56293	-0.49242	0.929713	1.05744	-0.505367	0.199823	0.374597	-0.635394	1.09421	1.37687	-0.52252	1.06155	1.28963	-0.371237	1.15092	1.33453	-0.497298	0.990117	1.23641	-0.305272	0.929694	1.2096	-0.362834	0.202809	0.19314	-0.577611	0.759563	1.1176	-0.597849	0.503055	0.47408	-0.605776	0.434249	0.450123	-0.541996	0.37021	0.376034	-0.614208	0.786805	0.917043	-0.457084	0.770991	0.801006	-0.473373	0.647905	0.748193	-0.516941	0.266601	0.150424	-0.660494	0.993432	1.47239	-0.409339	1.01496	1.3846	-0.410396	0.959484	1.3696	-0.354893
283	2.4	0.868469	1.5785	-0.625144	0.999679	1.49766	-0.628884	0.908542	1.55527	-0.808159	0.937758	1.08015	-0.758615	1.08828	0.163276	-0.673387	0.854997	1.24923	-0.826026	0.714478	1.31556	-0.922998	0.82914	1.19036	-0.858342	0.633352	1.36541	-0.934945	0.606358	1.36636	-0.855538	1.26071	0.136144	-0.740726	0.76314	1.12167	-0.681068	1.20994	0.514763	-0.700244	1.18209	0.425469	-0.75417	1.19461	0.311593	-0.686693	0.952217	0.891185	-0.804047	1.07862	0.837011	-0.794144	1.09108	0.71104	-0.765776	1.32245	0.176304	-0.653919	0.842757	1.51553	-0.876065	0.822767	1.45189	-0.893059	0.736599	1.48244	-0.851146	0.981943	1.56476	-0.493441	0.931756	1.05977	-0.505287	0.186465	0.406604	-0.635916	1.08942	1.37845	-0.524798	1.06082	1.29135	-0.372546	1.14662	1.33577	-0.501147	0.990433	1.2392	-0.304611	0.927901	1.2132	-0.360542	0.178351	0.224577	-0.581662	0.761121	1.11913	-0.596902	0.498419	0.481544	-0.606399	0.427583	0.46264	-0.542952	0.359631	0.396745	-0.615476	0.7904	0.918309	-0.457463	0.774898	0.801245	-0.474456	0.652017	0.748906	-0.515423	0.239734	0.179996	-0.665164	0.994526	1.47462	-0.41	1.0162	1.38667	-0.410467	0.960871	1.37244	-0.354886
284	2.40833	0.869312	1.57952	-0.625873	1.0001	1.49876	-0.629875	0.90855	1.55442	-0.809737	0.937416	1.07952	-0.760321	1.12302	0.145592	-0.673183	0.856858	1.25007	-0.825982	0.714781	1.31475	-0.922445	0.83154	1.19066	-0.858111	0.633142	1.36329	-0.934366	0.606802	1.36381	-0.855033	1.29974	0.135982	-0.734244	0.762949	1.12042	-0.680489	1.20994	0.507074	-0.70004	1.19073	0.415585	-0.753325	1.21384	0.303705	-0.685242	0.949576	0.886294	-0.804785	1.075	0.829162	-0.794947	1.0835	0.702405	-0.766808	1.35315	0.185566	-0.647255	0.842326	1.51417	-0.876201	0.822368	1.45116	-0.893253	0.736081	1.48071	-0.850357	0.9832	1.56573	-0.49415	0.93376	1.06182	-0.50506	0.177629	0.440602	-0.635803	1.08559	1.37694	-0.526766	1.05943	1.29099	-0.373284	1.14286	1.33381	-0.503945	0.989071	1.24106	-0.30366	0.924752	1.21604	-0.358275	0.156296	0.258474	-0.585639	0.762402	1.11972	-0.596212	0.496062	0.488297	-0.606888	0.423397	0.475075	-0.543817	0.35217	0.41747	-0.616474	0.794735	0.91795	-0.458106	0.779877	0.800097	-0.476137	0.657406	0.747446	-0.513922	0.21506	0.211641	-0.669683	0.995448	1.47546	-0.410416	1.01686	1.38754	-0.409979	0.961104	1.37425	-0.354677
285	2.41667	0.870301	1.58008	-0.626983	1.00037	1.49922	-0.630624	0.908884	1.55289	-0.811275	0.936984	1.07902	-0.760713	1.15296	0.132175	-0.672143	0.859946	1.24914	-0.826004	0.716737	1.31205	-0.922522	0.835525	1.18922	-0.858291	0.634395	1.35903	-0.934627	0.608423	1.35905	-0.855408	1.33161	0.138565	-0.728508	0.762602	1.11873	-0.679867	1.20811	0.499046	-0.69943	1.19676	0.40676	-0.752279	1.22901	0.297551	-0.683354	0.947857	0.883158	-0.80729	1.07098	0.820672	-0.795761	1.07425	0.692891	-0.76699	1.37687	0.195976	-0.64174	0.842537	1.51137	-0.876966	0.822892	1.44867	-0.893695	0.736256	1.47741	-0.850514	0.984409	1.56581	-0.494674	0.935813	1.06338	-0.504527	0.173525	0.476007	-0.635082	1.08277	1.37253	-0.528445	1.05716	1.28874	-0.373464	1.13965	1.32886	-0.505553	0.985929	1.24207	-0.302456	0.920256	1.21818	-0.356194	0.138243	0.294713	-0.588609	0.763465	1.1195	-0.595468	0.496034	0.494539	-0.607576	0.42219	0.487294	-0.544712	0.347865	0.437793	-0.61741	0.799683	0.916095	-0.458795	0.78554	0.797889	-0.477966	0.663628	0.744515	-0.51302	0.193813	0.245272	-0.673281	0.996154	1.47507	-0.410671	1.01676	1.38742	-0.408969	0.960209	1.37523	-0.35417
286	2.425	0.87138	1.58004	-0.628466	1.00048	1.49875	-0.631123	0.909475	1.55067	-0.812682	0.936451	1.07869	-0.759884	1.17644	0.122963	-0.670252	0.864201	1.24646	-0.82613	0.720322	1.30749	-0.923313	0.841019	1.18612	-0.858908	0.637105	1.35277	-0.935734	0.61125	1.35224	-0.856675	1.35524	0.14209	-0.723822	0.762228	1.11694	-0.67893	1.20489	0.491558	-0.698466	1.20011	0.399433	-0.751178	1.23985	0.293274	-0.681346	0.946516	0.880813	-0.81085	1.06631	0.81141	-0.796736	1.06434	0.683239	-0.766395	1.39379	0.205286	-0.637428	0.843317	1.50748	-0.878263	0.824289	1.44469	-0.894383	0.737138	1.47263	-0.851656	0.985541	1.56494	-0.495144	0.937896	1.06422	-0.503713	0.174077	0.511965	-0.633887	1.08091	1.36549	-0.529751	1.05376	1.28499	-0.373077	1.13685	1.32114	-0.505888	0.981053	1.2423	-0.301027	0.914445	1.21971	-0.354329	0.125378	0.332795	-0.590044	0.764309	1.11862	-0.594484	0.498397	0.500189	-0.608573	0.42417	0.49907	-0.545617	0.346621	0.457538	-0.618371	0.80502	0.913086	-0.459406	0.791565	0.794915	-0.47953	0.670448	0.740482	-0.512932	0.176898	0.280666	-0.675611	0.99646	1.47371	-0.410803	1.01576	1.3865	-0.407597	0.95828	1.37552	-0.353432
287	2.43333	0.87246	1.57921	-0.630197	1.00052	1.49714	-0.631431	0.910283	1.5477	-0.813944	0.935795	1.07839	-0.758318	1.19233	0.116908	-0.667284	0.869537	1.24214	-0.82637	0.725446	1.30109	-0.924833	0.847899	1.18148	-0.859909	0.641231	1.34464	-0.937681	0.615197	1.34352	-0.85883	1.37024	0.144567	-0.720186	0.761884	1.11521	-0.677624	1.2007	0.485152	-0.697546	1.20062	0.393414	-0.750084	1.24635	0.290373	-0.679562	0.944816	0.877934	-0.814526	1.06114	0.80151	-0.798076	1.05507	0.674283	-0.765662	1.4045	0.211555	-0.634408	0.84464	1.5027	-0.879882	0.826468	1.43955	-0.895304	0.738674	1.46648	-0.8537	0.986596	1.56306	-0.49565	0.939894	1.06415	-0.502891	0.179603	0.547401	-0.632288	1.0798	1.35611	-0.530509	1.04917	1.28009	-0.372098	1.13423	1.31088	-0.504934	0.974624	1.24181	-0.299398	0.907456	1.22065	-0.352649	0.11816	0.371896	-0.589905	0.764922	1.11713	-0.593253	0.503182	0.505	-0.609691	0.429298	0.510131	-0.546369	0.34832	0.476582	-0.619249	0.810437	0.909349	-0.459958	0.797747	0.791318	-0.480594	0.677832	0.73537	-0.513448	0.164666	0.317183	-0.676657	0.996157	1.47167	-0.410825	1.01381	1.38487	-0.406093	0.955378	1.37516	-0.352636
288	2.44167	0.873452	1.57743	-0.631992	1.00059	1.4943	-0.631632	0.91131	1.54386	-0.815089	0.934968	1.0779	-0.756591	1.2002	0.112271	-0.662971	0.875867	1.23635	-0.826731	0.731975	1.29286	-0.927034	0.856007	1.17545	-0.861169	0.64671	1.33478	-0.940458	0.620053	1.33306	-0.861832	1.37693	0.144365	-0.717374	0.761559	1.1135	-0.676118	1.19586	0.479808	-0.697064	1.19821	0.387992	-0.748918	1.24854	0.287801	-0.678043	0.942278	0.873774	-0.817528	1.05596	0.791596	-0.799943	1.04752	0.666641	-0.765395	1.40956	0.213833	-0.632814	0.846504	1.49708	-0.881618	0.829341	1.43349	-0.896446	0.740791	1.45898	-0.856489	0.987563	1.56014	-0.496195	0.941629	1.0631	-0.502467	0.190691	0.581103	-0.630311	1.07922	1.34468	-0.530521	1.04344	1.27425	-0.370507	1.13153	1.29829	-0.502742	0.966897	1.24063	-0.297613	0.899524	1.22097	-0.351134	0.116451	0.411014	-0.588466	0.765311	1.11498	-0.591911	0.510353	0.508699	-0.61057	0.437406	0.520175	-0.546772	0.352816	0.494683	-0.619846	0.815613	0.905205	-0.460577	0.804038	0.787086	-0.481164	0.685823	0.729096	-0.514146	0.157054	0.353805	-0.676511	0.995112	1.46907	-0.410721	1.01088	1.38245	-0.404642	0.951517	1.37414	-0.351923
289	2.45	0.87429	1.57463	-0.633686	1.00083	1.49027	-0.631786	0.912581	1.53906	-0.816154	0.933914	1.07697	-0.755145	1.20028	0.10739	-0.657318	0.883127	1.22925	-0.827248	0.739764	1.28286	-0.92982	0.865174	1.16815	-0.86253	0.653472	1.32331	-0.944046	0.625595	1.32101	-0.865609	1.37597	0.140421	-0.715071	0.761175	1.11159	-0.674684	1.1904	0.474965	-0.697067	1.19298	0.382322	-0.747546	1.2464	0.284314	-0.676552	0.938934	0.868587	-0.819396	1.05121	0.782692	-0.802278	1.04195	0.660457	-0.765683	1.40921	0.212069	-0.632702	0.848902	1.49054	-0.883361	0.832843	1.42652	-0.897794	0.743437	1.45016	-0.859887	0.988392	1.55622	-0.496697	0.942935	1.06103	-0.502778	0.207534	0.611935	-0.628092	1.07892	1.33141	-0.529652	1.03676	1.26749	-0.368324	1.12851	1.28355	-0.49944	0.958139	1.23878	-0.295746	0.890884	1.22064	-0.349823	0.11988	0.449106	-0.586036	0.765513	1.112	-0.590626	0.519776	0.511101	-0.610887	0.448272	0.528901	-0.546705	0.35994	0.511475	-0.619985	0.820321	0.900744	-0.461379	0.810536	0.782146	-0.481452	0.694409	0.721675	-0.514691	0.153903	0.389371	-0.675192	0.993322	1.46588	-0.410434	1.00704	1.37912	-0.403269	0.946725	1.37242	-0.351319
290	2.45833	0.87496	1.57083	-0.635198	1.00128	1.48518	-0.631909	0.914099	1.53326	-0.817166	0.932627	1.07538	-0.754245	1.1932	0.101553	-0.650795	0.891282	1.22099	-0.827983	0.748682	1.27129	-0.933075	0.875232	1.15968	-0.863827	0.661457	1.3103	-0.948395	0.631743	1.3075	-0.870105	1.36808	0.132141	-0.712997	0.760607	1.1091	-0.673527	1.18408	0.469724	-0.697244	1.18526	0.375741	-0.745929	1.23994	0.278875	-0.674897	0.935215	0.863327	-0.819963	1.04693	0.775788	-0.804623	1.03768	0.655359	-0.766091	1.40364	0.206279	-0.633829	0.851796	1.48294	-0.885121	0.836949	1.41843	-0.899318	0.746602	1.44001	-0.863839	0.989013	1.5514	-0.497033	0.943738	1.05794	-0.503922	0.229461	0.639108	-0.625961	1.07867	1.31634	-0.527875	1.02934	1.25975	-0.365631	1.12491	1.26681	-0.495229	0.948576	1.23626	-0.29392	0.881704	1.21961	-0.348799	0.128134	0.485166	-0.582793	0.765576	1.10803	-0.589499	0.531256	0.51214	-0.610486	0.461644	0.536073	-0.54614	0.369626	0.526635	-0.619553	0.82452	0.895812	-0.462362	0.8174	0.776475	-0.481705	0.703499	0.713262	-0.51499	0.155191	0.422802	-0.672608	0.990879	1.46192	-0.409883	1.00237	1.37481	-0.401852	0.941089	1.36995	-0.350757
291	2.46667	0.875488	1.56612	-0.636533	1.00189	1.4792	-0.631986	0.915827	1.52647	-0.818167	0.931209	1.07293	-0.754041	1.17982	0.0954035	-0.644173	0.900306	1.21171	-0.828975	0.758648	1.2584	-0.93671	0.886036	1.15013	-0.864922	0.670625	1.29587	-0.953393	0.638612	1.29261	-0.87528	1.35374	0.119418	-0.71098	0.759735	1.10565	-0.672677	1.17656	0.463147	-0.697233	1.17538	0.367842	-0.744166	1.22949	0.270927	-0.673132	0.931617	0.858838	-0.819284	1.04274	0.771291	-0.806121	1.03354	0.650662	-0.76606	1.39315	0.195836	-0.635448	0.855136	1.47418	-0.886979	0.841675	1.40901	-0.900977	0.750319	1.42852	-0.868358	0.989389	1.5458	-0.497103	0.944089	1.05391	-0.505673	0.255082	0.662335	-0.624362	1.07824	1.29943	-0.525255	1.02132	1.25096	-0.362565	1.12052	1.2482	-0.490334	0.938373	1.23308	-0.292288	0.872086	1.21788	-0.348155	0.141023	0.5183	-0.578782	0.765517	1.10291	-0.588527	0.544598	0.511835	-0.609383	0.477265	0.541568	-0.545093	0.382023	0.540013	-0.618491	0.828356	0.89014	-0.463379	0.824722	0.770138	-0.482008	0.712981	0.704068	-0.515146	0.161045	0.453209	-0.668646	0.987917	1.45703	-0.409013	0.996991	1.36957	-0.400251	0.934759	1.36669	-0.350162
